<svg width="71" height="112" viewBox="0 0 71 112" fill="none" xmlns="http://www.w3.org/2000/svg">
<rect width="71" height="71" fill="#FD7C29"/>
<path d="M53.8768 90.2002H46.8549C46.8549 90.1206 46.8549 90.0405 46.7753 89.8813L45.5786 85.3328C51.0043 81.4228 54.3562 76.7151 55.1537 71.6083C58.186 70.9699 59.622 68.8153 59.622 65.065C59.622 62.1924 58.9835 60.1976 57.5475 59.0008C56.9886 58.5221 54.7544 57.8041 54.7544 57.8041C54.7544 57.8041 54.7544 53.3358 54.5947 50.3034C54.5151 48.7872 54.2757 47.4308 53.8767 46.2341C54.3553 43.9999 54.5947 41.4462 54.1956 39.4513C54.0358 38.7333 53.2382 38.2547 52.5999 38.5736C52.2008 38.7333 51.8017 38.8925 51.323 38.9727C51.4026 38.3343 51.4026 37.6959 51.4026 37.0575C51.323 36.2593 50.4453 35.7807 49.7267 36.1001C46.5352 37.2968 41.7473 38.4139 35.6832 38.4139C25.6293 38.4139 17.4105 38.8925 16.6923 50.3032C16.453 53.2554 16.453 55.7289 16.5326 57.804C15.1762 57.9637 14.2984 58.4424 13.66 59.0006C12.3036 60.1973 11.6652 62.1921 11.6652 65.0648C11.6652 68.8151 13.1012 70.9696 16.1335 71.6081C17.0112 76.7149 20.2829 81.4226 25.7086 85.3326L24.5119 89.8811C24.5119 89.9607 24.5119 90.0409 24.4323 90.2001H17.4904C11.1068 90.2001 6 95.3863 6 101.69V108.872C6 110.548 7.35642 111.904 9.03229 111.904H62.4939C64.1699 111.904 65.5262 110.547 65.5262 108.872V101.69C65.367 95.3865 60.1808 90.2002 53.8768 90.2002ZM35.6041 53.974C40.5512 53.974 45.0195 53.1758 47.9723 51.9792C49.0097 53.974 51.323 57.9637 49.8874 57.9637C48.4518 57.9637 21.3214 57.9637 21.3214 57.9637C21.6403 56.0485 22.1991 53.974 23.2366 51.9792C26.1888 53.1758 30.577 53.974 35.6041 53.974ZM45.4987 60.5168V63.6287C45.4987 66.0227 44.6209 66.9004 42.227 66.9004C39.8331 66.9004 38.9553 66.0226 38.9553 63.6287V60.5168H45.4987ZM32.2528 60.5168V63.6287C32.2528 66.0227 31.375 66.9004 28.9811 66.9004C26.5872 66.9004 25.7095 66.0226 25.7095 63.6287V60.5168H32.2528ZM19.4061 70.3312C19.3265 69.2141 18.4487 68.416 17.4112 68.2567C16.0548 68.097 15.0975 68.0174 15.0975 65.0653C15.0975 62.7516 15.6563 61.9533 15.9752 61.6345C16.0548 61.5549 16.3743 61.3155 17.0127 61.3155C17.0923 62.4326 17.2521 63.39 17.4118 64.0284C17.7307 65.225 20.8426 65.1454 21.0024 64.108C21.082 63.7089 21.0024 62.3525 21.082 60.5174H23.0768V63.6293C23.0768 68.5764 26.2683 69.5342 28.9817 69.5342C31.6945 69.5342 34.8865 68.4967 34.8865 63.6293L34.886 61.2348C34.886 60.8357 35.2049 60.5964 35.5244 60.5964C35.9235 60.5964 36.1628 60.9153 36.1628 61.2348V63.7083C36.1628 68.6553 39.3543 69.6131 42.0677 69.6131C44.7805 69.6131 47.9725 68.5756 47.9725 63.7083V60.5963H49.9674C50.047 62.4314 49.9674 63.7878 50.0469 64.1869C50.2067 65.2244 53.3983 65.304 53.6375 64.1073C53.7973 63.5485 53.8768 62.5116 54.0366 61.3945C54.675 61.3945 54.9939 61.6338 55.0741 61.7134C55.393 62.0323 55.9518 62.8305 55.9518 65.1442C55.9518 68.0964 54.9945 68.1765 53.7176 68.3357C52.6005 68.4153 51.8024 69.293 51.6431 70.3305C51.1645 74.879 48.2918 79.0279 43.1852 82.6184C38.6367 85.8099 32.2536 85.8099 27.785 82.6184C22.7568 79.029 19.8842 74.8796 19.4054 70.3311L19.4061 70.3312ZM42.227 94.1895L37.5193 97.7005C36.4022 98.5783 34.8065 98.5783 33.6894 97.7005L28.9817 94.1895C27.9442 93.3913 27.4655 92.115 27.785 90.8381L28.7424 87.1674C30.8969 88.1247 33.2107 88.6034 35.5251 88.6034C37.8388 88.6034 40.2328 88.0445 42.3078 87.1674L43.2652 90.8381C43.7433 92.115 43.2645 93.3912 42.227 94.1895Z" fill="white"/>
<path d="M31.4223 63.629C31.4223 64.5986 30.6364 65.3844 29.6668 65.3844C28.6972 65.3844 27.9114 64.5985 27.9114 63.629C27.9114 62.6594 28.6973 61.8735 29.6668 61.8735C30.6364 61.8735 31.4223 62.6594 31.4223 63.629Z" fill="white"/>
<path d="M44.6679 63.629C44.6679 64.5986 43.882 65.3844 42.9124 65.3844C41.9428 65.3844 41.157 64.5985 41.157 63.629C41.157 62.6594 41.9429 61.8735 42.9124 61.8735C43.882 61.8735 44.6679 62.6594 44.6679 63.629Z" fill="white"/>
<path d="M30.1456 75.0395H31.7413V78.3908C31.7413 79.0292 32.22 79.5079 32.8584 79.5079H41.3164C41.9548 79.5079 42.4335 79.0292 42.4335 78.3908V75.0395H44.0292C44.6676 75.0395 45.1463 74.5608 45.1463 73.9224C45.1463 73.284 44.6676 72.8053 44.0292 72.8053H30.1454C29.507 72.8053 29.0283 73.284 29.0283 73.9224C29.1085 74.4806 29.5871 75.0395 30.1454 75.0395H30.1456ZM33.9761 75.0395H35.971V77.2737H33.9761V75.0395ZM40.2 77.2737H38.2052V75.0395H40.2V77.2737Z" fill="white"/>
<path d="M32.7988 27V24.6006H35.1982V27H32.7988ZM32.7988 22.2012V19.8018H35.1982V22.2012H32.7988ZM35.1982 19.8018V17.4023H37.5977V19.8018H35.1982ZM28 17.4023V15H30.3994V17.4023H28ZM37.5977 17.4023V15H40V17.4023H37.5977ZM30.3994 15V12.6006H37.5977V15H30.3994Z" fill="white"/>
</svg>
